# xmcd CD database file
# Copyright (C) 1993-1998 Ti Kan
#
# Track frame offsets:
#	150
#	19190
#	42917
#	69645
#	91329
#	109037
#	135460
#	154477
#	172750
#	193787
#	217105
#	237450
#
# Disc length: 3452 seconds
#
# Revision: 1
# Processed by: cddbd v1.4b41PL1 Copyright (c) Steve Scherf et al.
# Submitted via: CDValet v3.31 - Copyright (c) 1997 Greg Leichner
#
DISCID=a70d7a0c
DTITLE=Johnnie Bassett and The Blues Insurgents - Cadillac Blues
DYEAR=1900
DGENRE=
TTITLE0=I'm Gonna Do, What I'm Gonna Do
TTITLE1=Cadillac Blues
TTITLE2=Broke In Pieces
TTITLE3=I Can't Get It Together
TTITLE4=That's Fair Play
TTITLE5=Get Over Here Baby
TTITLE6=Raise The Roof, Raise The Rent
TTITLE7=Walk On Baby
TTITLE8=Memories Of Your Perfume
TTITLE9=Cadillac Baby
TTITLE10=Dog House Is My Home
TTITLE11=Dresser Drawers
EXTD=
EXTT0=
EXTT1=
EXTT2=
EXTT3=
EXTT4=
EXTT5=
EXTT6=
EXTT7=
EXTT8=
EXTT9=
EXTT10=
EXTT11=
PLAYORDER=
